<svg xmlns="http://www.w3.org/2000/svg" viewBox="0 0 1254 1254" aria-hidden="true" focusable="false">
  <defs>
    <radialGradient id="navy" cx="50%" cy="46%" r="72%"><stop offset="0" stop-color="#062346"/><stop offset=".58" stop-color="#001a36"/><stop offset="1" stop-color="#00132a"/></radialGradient>
    <clipPath id="field"><rect x="89" y="89" width="1076" height="1076" rx="214"/></clipPath>
    <path id="top" d="M93 360C108 362 157 375 183 373C210 371 228 360 252 348C277 336 302 319 330 302C358 285 392 259 420 244C448 229 474 217 500 211C526 205 550 207 575 210C600 213 627 227 650 230C673 233 692 231 715 228C738 225 764 217 790 210C816 203 844 191 870 185C896 180 922 175 945 177C968 179 991 186 1008 195C1025 204 1035 216 1045 230C1055 244 1065 262 1070 280C1076 298 1079 315 1078 338C1077 361 1067 394 1063 418C1059 443 1054 466 1055 485C1056 505 1063 519 1070 535C1078 551 1085 561 1100 580C1115 599 1175 650 1195 675"/>
    <path id="upper" d="M93 443C112 445 173 457 207 455C242 453 270 447 300 432C331 418 362 389 390 368C418 347 443 319 470 305C497 291 522 285 550 282C578 279 612 285 640 289C668 293 693 305 720 307C747 309 772 305 800 300C828 296 866 283 890 280C914 277 929 277 943 283C957 290 968 305 976 319C984 333 990 348 992 368C994 389 987 418 986 442C985 467 981 492 985 515C989 538 997 558 1010 580C1023 603 1040 620 1062 650C1084 680 1160 770 1190 800"/>
    <path id="outer" d="M935 650C952 681 991 712 1013 755C1035 798 1071 863 1068 908C1065 953 1031 999 997 1027C964 1055 911 1071 867 1078C823 1085 773 1082 732 1068C691 1054 650 1024 620 995C591 966 574 918 555 893C536 868 525 857 508 844C491 831 476 825 454 816C432 807 410 803 374 792C338 781 280 776 239 752C199 728 139 686 131 650C123 614 158 563 193 536C228 509 307 507 343 490C379 474 386 455 407 437C428 420 445 398 467 385C490 372 517 362 542 357C568 352 595 354 620 357C645 361 668 372 693 378C718 384 739 388 769 391C799 394 848 382 873 397C898 412 910 450 917 479C924 508 911 543 914 571C917 600 919 619 935 650Z"/>
    <path id="middle" d="M858 650C865 674 879 696 892 728C905 760 936 809 935 843C934 877 910 915 884 934C858 953 814 964 778 958C742 952 696 920 666 896C636 872 617 832 600 813C583 794 575 791 564 784C553 777 544 774 532 769C520 765 509 761 493 757C477 753 461 752 434 746C407 740 363 738 333 722C303 706 257 675 254 650C252 625 293 593 318 574C343 555 385 551 406 538C428 525 434 511 447 497C460 483 471 464 486 452C501 440 520 429 539 424C558 419 581 418 600 420C620 423 638 432 656 439C674 446 689 457 708 463C728 469 753 468 773 477C793 486 817 499 830 517C843 535 845 561 850 583C855 605 851 626 858 650Z"/>
    <path id="inner" d="M785 650C788 666 787 679 793 699C799 719 820 749 819 771C818 793 810 825 789 829C768 833 721 810 695 796C669 782 649 754 635 743C621 732 617 733 610 729C603 725 597 723 591 720C585 718 580 716 573 714C566 712 560 711 551 709C542 707 535 705 519 702C503 699 476 700 456 691C436 682 405 665 400 650C395 635 414 614 426 601C439 588 462 582 475 572C488 562 493 552 502 542C511 532 518 518 529 510C540 502 555 497 568 495C582 494 597 497 610 501C623 505 634 515 645 521C656 527 664 533 675 537C686 542 699 543 712 548C725 553 742 558 753 567C764 577 773 591 778 605C783 619 783 634 785 650Z"/>
    <path id="lower" d="M92 764C100 770 125 792 140 802C156 812 170 816 185 822C200 828 215 832 230 836C245 840 260 844 275 847C290 851 305 853 320 857C335 861 350 865 365 871C380 877 395 883 410 892C425 901 440 909 455 927C470 945 485 973 500 999C515 1025 530 1060 545 1082C560 1104 575 1117 590 1130C605 1143 628 1155 636 1160"/>
  </defs>
  <rect width="1254" height="1254" rx="214" fill="url(#navy)"/>
  <g clip-path="url(#field)" fill="none" stroke-linecap="round" stroke-linejoin="round">
    <g stroke="#0b5790">
      <rect x="89" y="89" width="1076" height="1076" rx="214" stroke-width="4" opacity=".72"/><rect x="98" y="98" width="1058" height="1058" rx="205" stroke-width="2" opacity=".34"/>
      <circle cx="626" cy="624" r="454" stroke-width="2.5" stroke-dasharray="9 10" opacity=".52"/><path d="M626 106V1150M99 623H1160" stroke-width="2" stroke-dasharray="10 11" opacity=".3"/>
      <g stroke-width="2" opacity=".7"><circle cx="626" cy="177" r="13"/><path d="M600 177H652M626 151V203"/><circle cx="172" cy="623" r="13"/><circle cx="207" cy="623" r="13"/><path d="M146 623H233M172 597V649M207 597V649"/><circle cx="975" cy="924" r="15"/><circle cx="975" cy="924" r="10"/><path d="M947 924H1003M975 896V952M955 904L995 944M995 904L955 944"/></g>
    </g>
    <g stroke="#0878cc"><g stroke-width="22" opacity=".15"><use href="#upper"/><use href="#outer"/><use href="#middle"/><use href="#lower"/></g><g stroke-width="7"><use href="#upper"/><use href="#outer"/><use href="#middle"/><use href="#lower"/></g><g stroke="#3aa9ed" stroke-width="2" opacity=".72"><use href="#upper"/><use href="#outer"/><use href="#middle"/><use href="#lower"/></g></g>
    <g stroke="#7dd9ff"><g stroke-width="24" opacity=".17"><use href="#top"/><use href="#inner"/></g><g stroke-width="7"><use href="#top"/><use href="#inner"/></g><g stroke="#d1f4ff" stroke-width="2" opacity=".82"><use href="#top"/><use href="#inner"/></g></g>
  </g>
</svg>
